<?xml version="1.0" encoding="utf-8"?>
<!-- Svg Vector Icons : http://www.onlinewebfonts.com/icon -->
<!DOCTYPE svg PUBLIC "-//W3C//DTD SVG 1.1//EN" "http://www.w3.org/Graphics/SVG/1.1/DTD/svg11.dtd">
<svg version="1.1" xmlns="http://www.w3.org/2000/svg" xmlns:xlink="http://www.w3.org/1999/xlink" x="0px" y="0px" viewBox="0 0 1000 1000" enable-background="new 0 0 1000 1000" xml:space="preserve">
<metadata> Svg Vector Icons : http://www.onlinewebfonts.com/icon </metadata>
<g><g><path d="M800.2,311.5c7.1,71.5-18.7,122.1-77.2,151.9c45.9,11,80.3,31.2,103.1,60.7c22.8,29.4,31.6,71.5,26.5,126c-2.7,27.9-9.1,52.4-19.1,73.6c-10,21.2-22.7,38.7-38,52.4c-15.3,13.7-34.4,25.2-57.1,34.5c-22.8,9.2-46.6,16-71.6,20.3c-24.9,4.3-53.5,7.3-85.7,8.8V990h-90.7V842.2c-31.4,0-55.4-0.2-71.9-0.6V990h-90.7V839.8c-7.1,0-17.7-0.1-31.8-0.3c-14.1-0.2-24.9-0.3-32.4-0.3H145.9l18.3-107.8h65.4c19.6,0,31-10,34.2-30V464.7h9.4c-2.4-0.4-5.5-0.6-9.4-0.6V295c-5.1-26.7-22.6-40-52.4-40h-65.4v-96.6l124.9,0.6c25.1,0,44.2-0.2,57.1-0.6V10h90.7v145.5c32.2-0.8,56.1-1.2,71.9-1.2V10h90.7v148.4c31,2.7,58.5,7.2,82.5,13.3c24,6.1,46.1,14.9,66.6,26.5c20.4,11.6,36.6,26.9,48.6,45.9S797.9,285.6,800.2,311.5L800.2,311.5z M673.6,632.5c0-14.1-2.9-26.7-8.8-37.7c-5.9-11-13.2-20-21.8-27.1c-8.6-7.1-19.9-13.1-33.9-18c-13.9-4.9-26.8-8.5-38.6-10.9c-11.8-2.4-26.3-4.1-43.6-5.3c-17.3-1.2-30.8-1.8-40.6-1.8s-22.5,0.2-38,0.6c-15.5,0.4-24.8,0.6-28,0.6V732c3.1,0,10.4,0.1,21.8,0.3c11.4,0.2,20.8,0.3,28.3,0.3s17.9-0.3,31.2-0.9c13.4-0.6,24.8-1.4,34.5-2.4s20.8-2.7,33.6-5c12.8-2.4,23.7-5.1,32.7-8.2c9-3.1,18.4-7.3,28-12.4c9.6-5.1,17.4-11,23.3-17.7c5.9-6.7,10.7-14.5,14.4-23.6C671.8,653.5,673.6,643.5,673.6,632.5z M631.8,352.2c0-13-2.5-24.4-7.4-34.5c-4.9-10-10.9-18.3-18-24.7c-7.1-6.5-16.5-12-28.3-16.5c-11.8-4.5-22.6-7.8-32.4-9.7c-9.8-2-21.9-3.5-36.2-4.7c-14.3-1.2-25.7-1.7-34.2-1.5s-19,0.4-31.8,0.6c-12.8,0.2-20.5,0.3-23.3,0.3v180.8c2,0,8.7,0.1,20.3,0.3c11.6,0.2,20.7,0.2,27.4,0c6.7-0.2,16.5-0.6,29.4-1.2c13-0.6,23.8-1.7,32.4-3.2c8.6-1.6,18.7-3.7,30.3-6.5c11.6-2.7,21.1-6.4,28.6-10.9c7.5-4.5,14.7-9.8,21.8-15.9c7.1-6.1,12.4-13.6,15.9-22.7C630,373.2,631.8,363.2,631.8,352.2L631.8,352.2z"/></g></g>
</svg>